# xmcd CD database file generated by OrangeCD 6.3
#
# Track frame offsets:
#	150
#	21627
#	38885
#	60172
#	73655
#	94140
#	111247
#	127807
#	148307
#	172620
#	190902
#	218237
#
# Disc length: 3199 seconds
#
# Revision: 2
# Processed by: cddbd v1.5.2PL0 Copyright (c) Steve Scherf et al.
# Submitted via: OrangeCD 6.3
#
DISCID=aa0c7d0c
DTITLE=Jimmy Johnson - Country Preacher
DYEAR=1996
DGENRE=Blues
TTITLE0=Country Preacher
TTITLE1=I Can't Survive
TTITLE2=Dead Or Alive
TTITLE3=Sang A Song In Heaven
TTITLE4=Ashes In My Ashtray
TTITLE5=The Twelve Bar Blues
TTITLE6=I Need Some Easy Money
TTITLE7=Jockey Sports
TTITLE8=When My First Wife Quit Me
TTITLE9=Pretty Baby
TTITLE10=Looking For My Baby
TTITLE11=Hi Heel Sneakers
EXTD=
EXTT0=
EXTT1=
EXTT2=
EXTT3=
EXTT4=
EXTT5=
EXTT6=
EXTT7=
EXTT8=
EXTT9=
EXTT10=
EXTT11=
PLAYORDER=
